<svg width="240" height="80" viewBox="0 0 240 80" fill="none" xmlns="http://www.w3.org/2000/svg">
<path d="M97 55V26.6H115V32.68H103.36V37.76H112.6V43.84H103.36V48.92H115V55H97ZM119.852 55V26.6H129.532C133.532 26.6 136.945 27.9867 139.772 30.76C142.598 33.5333 144.012 36.88 144.012 40.8C144.012 44.72 142.598 48.0667 139.772 50.84C136.945 53.6133 133.532 55 129.532 55H119.852ZM126.212 49.16H129.532C131.878 49.16 133.798 48.36 135.292 46.76C136.812 45.1333 137.572 43.1467 137.572 40.8C137.572 38.4533 136.812 36.48 135.292 34.88C133.798 33.2533 131.878 32.44 129.532 32.44H126.212V49.16ZM148.445 55V26.6H154.805V55H148.445ZM165.909 55V32.68H158.669V26.6H179.629V32.68H172.309V55H165.909ZM189.63 46.8C191.256 48.48 193.216 49.32 195.51 49.32C197.803 49.32 199.75 48.48 201.35 46.8C202.95 45.12 203.75 43.12 203.75 40.8C203.75 38.48 202.95 36.48 201.35 34.8C199.75 33.12 197.803 32.28 195.51 32.28C193.216 32.28 191.256 33.12 189.63 34.8C188.03 36.48 187.23 38.48 187.23 40.8C187.23 43.12 188.03 45.12 189.63 46.8ZM205.87 51.16C203.016 54.04 199.563 55.48 195.51 55.48C191.456 55.48 187.99 54.0533 185.11 51.2C182.256 48.32 180.83 44.8533 180.83 40.8C180.83 36.7467 182.256 33.2933 185.11 30.44C187.99 27.56 191.456 26.12 195.51 26.12C199.563 26.12 203.016 27.56 205.87 30.44C208.75 33.32 210.19 36.7733 210.19 40.8C210.19 44.8267 208.75 48.28 205.87 51.16ZM214.578 55V26.6H225.778C228.391 26.6 230.511 27.4267 232.138 29.08C233.765 30.7333 234.578 32.76 234.578 35.16C234.578 38.7333 232.725 41.1733 229.018 42.48L239.058 55H231.418L221.938 43.28H220.938V55H214.578ZM220.938 37.88H225.018C225.978 37.88 226.751 37.6267 227.338 37.12C227.951 36.6133 228.258 35.96 228.258 35.16C228.258 34.3067 227.951 33.64 227.338 33.16C226.751 32.68 225.978 32.44 225.018 32.44H220.938V37.88Z" fill="#6FB8F1"/>
<path d="M41.565 21.83L23.225 40.165L23.245 50.7825L33.84 50.765L52.1675 32.435C54.0333 36.0041 55.0053 39.9726 55 44C55 57.8075 43.8075 69 30 69C16.1925 69 5 57.8075 5 44C5 30.1925 16.1925 19 30 19C34.1725 19 38.105 20.0225 41.565 21.83ZM51.215 19.2525L54.7475 22.7875L31.7675 45.7675L28.2375 45.775L28.2325 42.2325L51.2125 19.25L51.215 19.2525Z" fill="#6FB8F1"/>
</svg>
